<svg xmlns="http://www.w3.org/2000/svg" id="Layer_1" x="0" y="0" version="1.1" viewBox="0 0 29 29" xml:space="preserve"><path d="M24 25H5c-1.654 0-3-1.346-3-3V7c0-1.654 1.346-3 3-3h4.559c1.293 0 2.437.824 2.846 2.051l.089.266a.997.997 0 0 0 .947.683H24c1.654 0 3 1.346 3 3v12c0 1.654-1.346 3-3 3zM5 6c-.552 0-1 .449-1 1v15c0 .551.448 1 1 1h19c.552 0 1-.449 1-1V10c0-.551-.448-1-1-1H13.441a2.996 2.996 0 0 1-2.846-2.051l-.089-.266A.997.997 0 0 0 9.559 6H5z"/><path d="M24 25H5c-1.654 0-3-1.346-3-3V12a1 1 0 0 1 1-1h23a1 1 0 0 1 1 1v10c0 1.654-1.346 3-3 3zM4 13v9c0 .551.448 1 1 1h19c.552 0 1-.449 1-1v-9H4z"/></svg>